<svg width="22" height="22" viewBox="0 0 22 22" fill="none" xmlns="http://www.w3.org/2000/svg">
<path d="M16.5001 4.58341H17.5001V3.58341H16.5001V4.58341ZM19.1966 10.7575L18.9541 11.7277L18.9541 11.7277L19.1966 10.7575ZM18.015 10.4621L17.7725 11.4323L18.015 10.4621ZM18.015 11.538L17.7725 10.5679H17.7725L18.015 11.538ZM19.1966 11.2426L18.9541 10.2725L18.9541 10.2725L19.1966 11.2426ZM16.5001 3.58341H12.8334V5.58341H16.5001V3.58341ZM12.8334 18.4167H14.5001V16.4167H12.8334V18.4167ZM19.4391 9.7874L18.2575 9.492L17.7725 11.4323L18.9541 11.7277L19.4391 9.7874ZM17.5001 8.52186V4.58341H15.5001V8.52186H17.5001ZM17.5001 15.4167V13.4783H15.5001V15.4167H17.5001ZM18.2575 12.5082L19.4391 12.2128L18.9541 10.2725L17.7725 10.5679L18.2575 12.5082ZM17.5001 13.4783C17.5001 13.0194 17.8124 12.6194 18.2575 12.5082L17.7725 10.5679C16.437 10.9017 15.5001 12.1017 15.5001 13.4783H17.5001ZM18.2575 9.492C17.8124 9.38071 17.5001 8.98073 17.5001 8.52186H15.5001C15.5001 9.89847 16.437 11.0984 17.7725 11.4323L18.2575 9.492ZM18.9541 11.7277C18.1966 11.5383 18.1966 10.4618 18.9541 10.2725L19.4391 12.2128C20.7016 11.8972 20.7016 10.103 19.4391 9.7874L18.9541 11.7277ZM14.5001 18.4167C16.1569 18.4167 17.5001 17.0736 17.5001 15.4167H15.5001C15.5001 15.969 15.0524 16.4167 14.5001 16.4167V18.4167Z" fill="#23496C"/>
<path d="M5.49992 17.4166H4.49992V18.4166H5.49992V17.4166ZM2.80339 11.2425L3.04593 10.2723L3.04593 10.2723L2.80339 11.2425ZM3.98499 11.5379L4.22752 10.5677L3.98499 11.5379ZM3.98499 10.462L4.22753 11.4321H4.22753L3.98499 10.462ZM2.80339 10.7574L3.04593 11.7275L3.04593 11.7275L2.80339 10.7574ZM5.49992 18.4166H9.16658V16.4166H5.49992V18.4166ZM9.16658 3.58325H7.49992V5.58325H9.16658V3.58325ZM2.56086 12.2126L3.74245 12.508L4.22752 10.5677L3.04593 10.2723L2.56086 12.2126ZM4.49992 13.4781V17.4166H6.49992V13.4781H4.49992ZM4.49992 6.58325V8.5217H6.49992V6.58325H4.49992ZM3.74245 9.49184L2.56086 9.78724L3.04593 11.7275L4.22753 11.4321L3.74245 9.49184ZM4.49992 8.5217C4.49992 8.98057 4.18762 9.38055 3.74245 9.49184L4.22753 11.4321C5.56303 11.0983 6.49992 9.8983 6.49992 8.5217H4.49992ZM3.74245 12.508C4.18762 12.6193 4.49992 13.0193 4.49992 13.4781H6.49992C6.49992 12.1015 5.56302 10.9016 4.22752 10.5677L3.74245 12.508ZM3.04593 10.2723C3.8034 10.4617 3.80339 11.5382 3.04593 11.7275L2.56086 9.78724C1.29843 10.1028 1.29841 11.897 2.56086 12.2126L3.04593 10.2723ZM7.49992 3.58325C5.84307 3.58325 4.49992 4.9264 4.49992 6.58325H6.49992C6.49992 6.03097 6.94763 5.58325 7.49992 5.58325V3.58325Z" fill="#23496C"/>
</svg>
