<svg width="11" height="5" viewBox="0 0 11 5" fill="none" xmlns="http://www.w3.org/2000/svg">
<g opacity="0.2">
<path d="M4.67355 4.81539C4.62555 4.78714 4.4203 4.68047 4.25146 4.5811C3.18961 3.99854 1.45157 2.47881 0.921057 1.68339C0.83581 1.56259 0.655386 1.25718 0.643799 1.09401C0.643799 0.937652 0.703389 0.788602 0.824223 0.646371C0.993061 0.46907 1.25873 0.326839 1.57241 0.248904C1.79007 0.198734 2.44142 0.120799 2.45301 0.120799C3.1656 0.0428641 4.32347 0 5.60299 0C6.8221 0 7.93278 0.0428641 8.65614 0.106673C8.66772 0.11398 9.47715 0.191914 9.75441 0.277155C10.2609 0.433512 10.5754 0.738919 10.5754 1.06576V1.09401C10.563 1.30687 10.2485 1.75451 10.2369 1.75451C9.70558 2.50706 8.05279 3.99172 6.95452 4.58841C6.95452 4.58841 6.67229 4.75645 6.49601 4.82952C6.24275 4.9435 5.92908 5 5.6154 5C5.26531 5 4.93923 4.93619 4.67355 4.81539Z" fill="#030229"/>
</g>
</svg>
