<svg width="205" height="36" viewBox="0 0 205 36" fill="none" xmlns="http://www.w3.org/2000/svg">
<path d="M44.7502 7.8C45.9982 7.8 47.1076 8.034 48.0782 8.502C49.0489 8.97 49.8636 9.62867 50.5222 10.478C51.1982 11.31 51.7009 12.2807 52.0302 13.39C52.3769 14.482 52.5502 15.652 52.5502 16.9C52.5502 18.5813 52.2469 20.1153 51.6402 21.502C51.0336 22.8713 50.1496 23.9633 48.9882 24.778C47.8442 25.5927 46.4316 26 44.7502 26H38.5362C38.0856 26 37.7042 25.8527 37.3922 25.558C37.0976 25.246 36.9502 24.8647 36.9502 24.414V9.386C36.9502 8.93533 37.0976 8.56267 37.3922 8.268C37.7042 7.956 38.0856 7.8 38.5362 7.8H44.7502ZM44.4902 23.01C45.5822 23.01 46.4749 22.7327 47.1682 22.178C47.8616 21.606 48.3642 20.8607 48.6762 19.942C49.0056 19.006 49.1702 17.992 49.1702 16.9C49.1702 16.0853 49.0749 15.314 48.8842 14.586C48.7109 13.8407 48.4336 13.1907 48.0522 12.636C47.6709 12.064 47.1856 11.6133 46.5962 11.284C46.0069 10.9547 45.3049 10.79 44.4902 10.79H39.9402L40.2002 10.556V23.296L40.0442 23.01H44.4902ZM62.0912 11.882L56.4752 25.09C56.3539 25.4193 56.1632 25.6793 55.9032 25.87C55.6606 26.0433 55.3919 26.13 55.0972 26.13C54.6292 26.13 54.2826 26 54.0572 25.74C53.8319 25.48 53.7192 25.1593 53.7192 24.778C53.7192 24.622 53.7452 24.4573 53.7972 24.284L60.2712 8.736C60.4099 8.38933 60.6179 8.12067 60.8952 7.93C61.1899 7.73933 61.5019 7.66133 61.8312 7.696C62.1432 7.696 62.4292 7.79133 62.6892 7.982C62.9666 8.15533 63.1659 8.40667 63.2872 8.736L69.6832 23.972C69.7699 24.1973 69.8132 24.4053 69.8132 24.596C69.8132 25.064 69.6572 25.4367 69.3452 25.714C69.0506 25.9913 68.7212 26.13 68.3572 26.13C68.0452 26.13 67.7592 26.0347 67.4992 25.844C67.2566 25.6533 67.0659 25.3933 66.9272 25.064L61.3372 12.038L62.0912 11.882ZM57.2812 21.918L58.7112 18.928H65.7312L66.2252 21.918H57.2812ZM80.1527 7.8C81.8167 7.8 83.056 8.19 83.8707 8.97C84.6854 9.75 85.0927 10.9027 85.0927 12.428C85.0927 13.2427 84.8934 13.962 84.4947 14.586C84.096 15.1927 83.5067 15.6693 82.7267 16.016C81.9467 16.3453 80.9847 16.51 79.8407 16.51L79.9447 15.34C80.482 15.34 81.0974 15.418 81.7907 15.574C82.484 15.7127 83.1514 15.9727 83.7927 16.354C84.4514 16.718 84.9887 17.238 85.4047 17.914C85.838 18.5727 86.0547 19.422 86.0547 20.462C86.0547 21.606 85.864 22.542 85.4827 23.27C85.1187 23.998 84.6334 24.5613 84.0267 24.96C83.42 25.3587 82.77 25.636 82.0767 25.792C81.3834 25.9307 80.716 26 80.0747 26H73.6007C73.15 26 72.7687 25.8527 72.4567 25.558C72.162 25.246 72.0147 24.8647 72.0147 24.414V9.386C72.0147 8.93533 72.162 8.56267 72.4567 8.268C72.7687 7.956 73.15 7.8 73.6007 7.8H80.1527ZM79.6847 10.868H75.0567L75.3947 10.452V15.158L75.0827 14.924H79.7627C80.2654 14.924 80.716 14.7593 81.1147 14.43C81.5134 14.1007 81.7127 13.624 81.7127 13C81.7127 12.2547 81.522 11.7173 81.1407 11.388C80.7767 11.0413 80.2914 10.868 79.6847 10.868ZM79.8927 17.992H75.1607L75.3947 17.784V23.27L75.1347 23.01H80.0747C80.872 23.01 81.5047 22.802 81.9727 22.386C82.4407 21.9527 82.6747 21.3113 82.6747 20.462C82.6747 19.682 82.5187 19.1187 82.2067 18.772C81.8947 18.4253 81.522 18.2087 81.0887 18.122C80.6554 18.0353 80.2567 17.992 79.8927 17.992ZM99.0878 22.958C99.5385 22.958 99.9111 23.1053 100.206 23.4C100.518 23.6773 100.674 24.0413 100.674 24.492C100.674 24.9253 100.518 25.2893 100.206 25.584C99.9111 25.8613 99.5385 26 99.0878 26H90.6378C90.1871 26 89.8058 25.8527 89.4938 25.558C89.1991 25.246 89.0518 24.8647 89.0518 24.414V9.386C89.0518 8.93533 89.2078 8.56267 89.5198 8.268C89.8318 7.956 90.2305 7.8 90.7158 7.8C91.1318 7.8 91.4958 7.956 91.8078 8.268C92.1371 8.56267 92.3018 8.93533 92.3018 9.386V23.4L91.7298 22.958H99.0878ZM105.237 7.8H113.947C114.398 7.8 114.771 7.94733 115.065 8.242C115.377 8.51933 115.533 8.88333 115.533 9.334C115.533 9.76733 115.377 10.1227 115.065 10.4C114.771 10.66 114.398 10.79 113.947 10.79H106.667L106.901 10.348V15.418L106.693 15.21H112.777C113.228 15.21 113.601 15.3573 113.895 15.652C114.207 15.9293 114.363 16.2933 114.363 16.744C114.363 17.1773 114.207 17.5327 113.895 17.81C113.601 18.07 113.228 18.2 112.777 18.2H106.771L106.901 17.992V23.244L106.693 23.01H113.947C114.398 23.01 114.771 23.166 115.065 23.478C115.377 23.7727 115.533 24.1193 115.533 24.518C115.533 24.9513 115.377 25.3067 115.065 25.584C114.771 25.8613 114.398 26 113.947 26H105.237C104.787 26 104.405 25.8527 104.093 25.558C103.799 25.246 103.651 24.8647 103.651 24.414V9.386C103.651 8.93533 103.799 8.56267 104.093 8.268C104.405 7.956 104.787 7.8 105.237 7.8ZM120.402 26C119.917 26 119.484 25.8527 119.102 25.558C118.721 25.246 118.53 24.8647 118.53 24.414V9.386C118.53 8.93533 118.678 8.56267 118.972 8.268C119.284 7.956 119.666 7.8 120.116 7.8H127.604C128.506 7.8 129.346 8.04267 130.126 8.528C130.924 8.996 131.565 9.65467 132.05 10.504C132.536 11.336 132.778 12.298 132.778 13.39C132.778 14.0487 132.64 14.69 132.362 15.314C132.102 15.938 131.738 16.5013 131.27 17.004C130.82 17.5067 130.308 17.8967 129.736 18.174L129.762 17.576C130.248 17.836 130.646 18.148 130.958 18.512C131.288 18.8587 131.539 19.24 131.712 19.656C131.903 20.0547 132.016 20.488 132.05 20.956C132.12 21.3893 132.163 21.7707 132.18 22.1C132.215 22.4293 132.267 22.7067 132.336 22.932C132.423 23.1573 132.579 23.3307 132.804 23.452C133.186 23.6773 133.42 24.0067 133.506 24.44C133.61 24.856 133.515 25.2287 133.22 25.558C133.03 25.7833 132.787 25.9307 132.492 26C132.198 26.052 131.903 26.052 131.608 26C131.314 25.9307 131.071 25.844 130.88 25.74C130.586 25.5667 130.291 25.3153 129.996 24.986C129.702 24.6393 129.459 24.18 129.268 23.608C129.095 23.036 129.008 22.2993 129.008 21.398C129.008 21.1033 128.956 20.8347 128.852 20.592C128.748 20.332 128.601 20.1153 128.41 19.942C128.22 19.7513 127.977 19.6127 127.682 19.526C127.388 19.422 127.041 19.37 126.642 19.37H121.39L121.78 18.772V24.414C121.78 24.8647 121.659 25.246 121.416 25.558C121.174 25.8527 120.836 26 120.402 26ZM121.416 16.692H127.474C127.786 16.692 128.09 16.5533 128.384 16.276C128.679 15.9813 128.922 15.5913 129.112 15.106C129.303 14.6033 129.398 14.0573 129.398 13.468C129.398 12.7053 129.19 12.0727 128.774 11.57C128.376 11.05 127.942 10.79 127.474 10.79H121.468L121.78 9.958V17.316L121.416 16.692Z" fill="white"/>
<path fill-rule="evenodd" clip-rule="evenodd" d="M2.54 5.8623H5.92C7.33 5.8623 8.46 7.0123 8.46 8.4233V11.8323C8.46 13.2523 7.33 14.3923 5.92 14.3923H2.54C1.14 14.3923 0 13.2523 0 11.8323V8.4233C0 7.0123 1.14 5.8623 2.54 5.8623ZM2.54009 17.3323H5.92009C7.33009 17.3323 8.46009 18.4733 8.46009 19.8933V23.3023C8.46009 24.7123 7.33009 25.8623 5.92009 25.8623H2.54009C1.14009 25.8623 8.6366e-05 24.7123 8.6366e-05 23.3023V19.8933C8.6366e-05 18.4733 1.14009 17.3323 2.54009 17.3323ZM17.4601 5.8623H14.0801C12.6701 5.8623 11.5401 7.0123 11.5401 8.4233V11.8323C11.5401 13.2523 12.6701 14.3923 14.0801 14.3923H17.4601C18.8601 14.3923 20.0001 13.2523 20.0001 11.8323V8.4233C20.0001 7.0123 18.8601 5.8623 17.4601 5.8623ZM14.0801 17.3323H17.4601C18.8601 17.3323 20.0001 18.4733 20.0001 19.8933V23.3023C20.0001 24.7123 18.8601 25.8623 17.4601 25.8623H14.0801C12.6701 25.8623 11.5401 24.7123 11.5401 23.3023V19.8933C11.5401 18.4733 12.6701 17.3323 14.0801 17.3323Z" fill="white"/>
</svg>
