<svg width="24" height="24" viewBox="0 0 24 24" fill="none" xmlns="http://www.w3.org/2000/svg">
<path fill-rule="evenodd" clip-rule="evenodd" d="M4 5C4 4.44772 4.44772 4 5 4L19 4C19.5523 4 20 4.44772 20 5C20 5.55229 19.5523 6 19 6L5 6C4.44772 6 4 5.55228 4 5Z" fill="white"/>
<path fill-rule="evenodd" clip-rule="evenodd" d="M4 12C4 11.4477 4.44772 11 5 11L19 11C19.5523 11 20 11.4477 20 12C20 12.5523 19.5523 13 19 13L5 13C4.44772 13 4 12.5523 4 12Z" fill="white"/>
<path fill-rule="evenodd" clip-rule="evenodd" d="M4 19C4 18.4477 4.44772 18 5 18L19 18C19.5523 18 20 18.4477 20 19C20 19.5523 19.5523 20 19 20L5 20C4.44772 20 4 19.5523 4 19Z" fill="white"/>
</svg>
